<svg width="46" height="54" viewBox="0 0 46 54" fill="none" xmlns="http://www.w3.org/2000/svg">
<path opacity="0.2" fill-rule="evenodd" clip-rule="evenodd" d="M38.3497 16.6175L24.1124 8.52051L9.875 16.6175V32.8115L24.1124 40.9084L38.3497 32.8115V16.6175ZM34.553 18.7767L24.1122 12.8389L13.6715 18.7767V30.6523L24.1122 36.59L34.553 30.6523V18.7767Z" fill="white"/>
<path opacity="0.5" fill-rule="evenodd" clip-rule="evenodd" d="M42.0652 14.4583L24.0988 4.20215L6.13232 14.4583V34.9707L24.0988 45.2269L42.0652 34.9707V14.4583ZM38.3075 16.6034L24.0988 8.49231L9.89002 16.6034V32.8256L24.0988 40.9367L38.3075 32.8256V16.6034Z" fill="white"/>
<path fill-rule="evenodd" clip-rule="evenodd" d="M25.4316 0.779865C24.5973 0.304824 23.5726 0.304823 22.7383 0.779864L3.75513 11.5884C2.91083 12.0691 2.38989 12.963 2.38989 13.9311V35.5055C2.38989 36.4735 2.91083 37.3675 3.75512 37.8482L22.7383 48.6567C23.5726 49.1317 24.5973 49.1317 25.4316 48.6567L44.4147 37.8482C45.259 37.3675 45.78 36.4735 45.78 35.5055V13.9311C45.78 12.963 45.259 12.0691 44.4147 11.5884L25.4316 0.779865ZM25.4316 5.05319C24.5972 4.57815 23.5726 4.57815 22.7383 5.05319L7.50777 13.725C6.66348 14.2058 6.14254 15.0997 6.14254 16.0677V33.3688C6.14254 34.3369 6.66348 35.2308 7.50777 35.7115L22.7383 44.3834C23.5726 44.8584 24.5972 44.8584 25.4316 44.3834L40.6621 35.7115C41.5064 35.2308 42.0273 34.3369 42.0273 33.3688V16.0677C42.0273 15.0997 41.5064 14.2058 40.6621 13.725L25.4316 5.05319Z" fill="white"/>
<path d="M8.35585 25.7942C8.35585 28.0301 6.53463 29.8427 4.28803 29.8427C2.04144 29.8427 0.220215 28.0301 0.220215 25.7942C0.220215 23.5583 2.04144 21.7457 4.28803 21.7457C6.53463 21.7457 8.35585 23.5583 8.35585 25.7942Z" fill="white"/>
<path d="M27.2034 13.6487C27.2034 15.2884 25.8679 16.6176 24.2204 16.6176C22.5728 16.6176 21.2373 15.2884 21.2373 13.6487C21.2373 12.009 22.5728 10.6798 24.2204 10.6798C25.8679 10.6798 27.2034 12.009 27.2034 13.6487Z" fill="white"/>
<path fill-rule="evenodd" clip-rule="evenodd" d="M24.2204 32.8116C27.9647 32.8116 31 29.7906 31 26.0641C31 22.3375 27.9647 19.3166 24.2204 19.3166C20.476 19.3166 17.4407 22.3375 17.4407 26.0641C17.4407 29.7906 20.476 32.8116 24.2204 32.8116ZM24.2204 30.1126C26.4669 30.1126 28.2882 28.3 28.2882 26.0641C28.2882 23.8282 26.4669 22.0156 24.2204 22.0156C21.9738 22.0156 20.1525 23.8282 20.1525 26.0641C20.1525 28.3 21.9738 30.1126 24.2204 30.1126Z" fill="white"/>
<path d="M22.5932 16.0778H25.8475V20.3962H22.5932V16.0778Z" fill="white"/>
<path d="M19.4746 30.6524L22.7625 32.5417L18.5221 39.8514L15.2341 37.9621L19.4746 30.6524Z" fill="white"/>
<path d="M30.3558 33.0815L27.0679 34.9708L37.313 52.6315C37.8372 53.5351 38.9982 53.8448 39.9061 53.323C40.8141 52.8013 41.1252 51.6458 40.601 50.7422L30.3558 33.0815Z" fill="white"/>
<path d="M11.4544 44.6754L14.7424 46.5647L11.237 52.6073C10.7128 53.5109 9.55185 53.8205 8.6439 53.2988C7.73595 52.7771 7.42486 51.6216 7.94907 50.718L11.4544 44.6754Z" fill="white"/>
</svg>
