<svg width="397" height="87" viewBox="0 0 397 87" fill="none" xmlns="http://www.w3.org/2000/svg">
<path d="M258 10C258 4.47715 262.477 0 268 0H308C313.523 0 318 4.47715 318 10V50C318 55.5228 313.523 60 308 60H268C262.477 60 258 55.5228 258 50V10Z" fill="white"/>
<path d="M46 18C46 12.4772 50.4772 8 56 8H318C323.523 8 328 12.4772 328 18V58C328 63.5228 323.523 68 318 68H56C50.4772 68 46 63.5228 46 58V18Z" fill="#00A3FF"/>
<mask id="path-3-outside-1_383_307" maskUnits="userSpaceOnUse" x="37" y="33" width="44" height="44" fill="black">
<rect fill="white" x="37" y="33" width="44" height="44"/>
<path d="M38 43C38 37.4772 42.4772 33 48 33H71C76.5228 33 81 37.4772 81 43V66C81 71.5228 76.5228 76 71 76H48C42.4772 76 38 71.5228 38 66V43Z"/>
</mask>
<path d="M38 33H81H38ZM81 66C81 72.0751 76.0751 77 70 77H48C41.9249 77 37 72.0751 37 66H39C39 70.9706 43.0294 75 48 75H71C76.5228 75 81 70.9706 81 66ZM48 77C41.9249 77 37 72.0751 37 66V44C37 37.9249 41.9249 33 48 33C43.0294 33 39 37.4772 39 43V66C39 70.9706 43.0294 75 48 75V77ZM81 33V76V33Z" fill="white" mask="url(#path-3-outside-1_383_307)"/>
<line x1="6" y1="17.5" x2="86" y2="17.5" stroke="white"/>
<line x1="288" y1="57.5" x2="368" y2="57.5" stroke="white"/>
<circle cx="368.284" cy="58.2843" r="19.5" transform="rotate(45 368.284 58.2843)" stroke="white" stroke-dasharray="20 20"/>
<circle cx="6" cy="18" r="6" fill="white"/>
<path d="M93.26 44.16C91.9133 44.16 90.7533 43.86 89.78 43.26C88.82 42.6467 88.08 41.8267 87.56 40.8C87.04 39.7733 86.78 38.6333 86.78 37.38C86.78 36.1267 87.0467 34.9867 87.58 33.96C88.1133 32.9333 88.8667 32.12 89.84 31.52C90.8267 30.9067 91.98 30.6 93.3 30.6C94.7267 30.6 95.96 30.9533 97 31.66C98.0533 32.3533 98.8267 33.2533 99.32 34.36H97.68C97.28 33.6533 96.72 33.0933 96 32.68C95.2933 32.2667 94.4333 32.06 93.42 32.06C92.3533 32.06 91.4333 32.3 90.66 32.78C89.8867 33.2467 89.2933 33.88 88.88 34.68C88.48 35.48 88.28 36.38 88.28 37.38C88.28 38.3667 88.48 39.2667 88.88 40.08C89.28 40.88 89.86 41.52 90.62 42C91.3933 42.4667 92.3133 42.7 93.38 42.7C94.18 42.7 94.9333 42.5267 95.64 42.18C96.36 41.8333 96.94 41.3333 97.38 40.68C97.8333 40.0267 98.06 39.24 98.06 38.32H93.22V36.96H99.44V44H98.06V41.66C97.78 42.0867 97.42 42.4933 96.98 42.88C96.54 43.2533 96.0067 43.56 95.38 43.8C94.7667 44.04 94.06 44.16 93.26 44.16ZM106.193 44.16C105.18 44.16 104.293 43.9333 103.533 43.48C102.773 43.0133 102.18 42.3867 101.753 41.6C101.34 40.8133 101.133 39.9467 101.133 39C101.133 38.04 101.333 37.1733 101.733 36.4C102.133 35.6133 102.706 34.9933 103.453 34.54C104.2 34.0733 105.08 33.84 106.093 33.84C107.12 33.84 108 34.0733 108.733 34.54C109.48 34.9933 110.053 35.6133 110.453 36.4C110.853 37.1733 111.053 38.04 111.053 39V39.6H102.673C102.753 40.1867 102.94 40.7267 103.233 41.22C103.54 41.7 103.946 42.0867 104.453 42.38C104.96 42.66 105.546 42.8 106.213 42.8C106.92 42.8 107.513 42.6467 107.993 42.34C108.473 42.02 108.846 41.6133 109.113 41.12H110.753C110.406 42.0133 109.853 42.7467 109.093 43.32C108.346 43.88 107.38 44.16 106.193 44.16ZM102.693 38.2H109.493C109.36 37.3467 109 36.6333 108.413 36.06C107.826 35.4867 107.053 35.2 106.093 35.2C105.133 35.2 104.36 35.4867 103.773 36.06C103.2 36.6333 102.84 37.3467 102.693 38.2ZM113.966 44V35.32H111.926V34H113.966V30.42H115.466V34H117.766V35.32H115.466V44H113.966ZM129.547 44.16C128.227 44.16 127.087 43.86 126.127 43.26C125.167 42.6467 124.427 41.8267 123.907 40.8C123.401 39.7733 123.147 38.6333 123.147 37.38C123.147 36.1267 123.401 34.9867 123.907 33.96C124.427 32.9333 125.167 32.12 126.127 31.52C127.087 30.9067 128.227 30.6 129.547 30.6C130.547 30.6 131.447 30.78 132.247 31.14C133.047 31.4867 133.727 31.9667 134.287 32.58C134.847 33.1933 135.267 33.9067 135.547 34.72H133.967C133.634 33.9067 133.107 33.26 132.387 32.78C131.667 32.3 130.761 32.06 129.667 32.06C128.601 32.06 127.687 32.3 126.927 32.78C126.181 33.2467 125.614 33.88 125.227 34.68C124.841 35.48 124.647 36.38 124.647 37.38C124.647 38.3667 124.841 39.2667 125.227 40.08C125.614 40.88 126.181 41.52 126.927 42C127.687 42.4667 128.601 42.7 129.667 42.7C130.761 42.7 131.667 42.46 132.387 41.98C133.107 41.5 133.634 40.8533 133.967 40.04H135.547C135.267 40.84 134.847 41.5533 134.287 42.18C133.727 42.7933 133.047 43.28 132.247 43.64C131.447 43.9867 130.547 44.16 129.547 44.16ZM141.376 44.16C140.696 44.16 140.049 44 139.436 43.68C138.822 43.3467 138.322 42.86 137.936 42.22C137.562 41.5667 137.376 40.7667 137.376 39.82V34H138.876V39.78C138.876 40.6867 139.136 41.42 139.656 41.98C140.189 42.5267 140.862 42.8 141.676 42.8C142.236 42.8 142.742 42.6733 143.196 42.42C143.649 42.1533 144.009 41.7933 144.276 41.34C144.556 40.8867 144.696 40.36 144.696 39.76V34H146.196V44H144.696V42.44C144.336 42.92 143.896 43.3267 143.376 43.66C142.856 43.9933 142.189 44.16 141.376 44.16ZM152.444 44.16C151.524 44.16 150.744 44.0067 150.104 43.7C149.477 43.3933 148.997 42.9933 148.664 42.5C148.331 41.9933 148.144 41.4467 148.104 40.86H149.664C149.704 41.1933 149.817 41.52 150.004 41.84C150.204 42.1467 150.504 42.4 150.904 42.6C151.304 42.7867 151.824 42.88 152.464 42.88C152.664 42.88 152.911 42.86 153.204 42.82C153.497 42.78 153.777 42.7067 154.044 42.6C154.324 42.4933 154.557 42.3333 154.744 42.12C154.931 41.9067 155.024 41.6333 155.024 41.3C155.024 40.8867 154.864 40.5667 154.544 40.34C154.224 40.1133 153.811 39.94 153.304 39.82C152.797 39.6867 152.257 39.56 151.684 39.44C151.124 39.32 150.591 39.1667 150.084 38.98C149.577 38.78 149.164 38.5067 148.844 38.16C148.524 37.8 148.364 37.3133 148.364 36.7C148.364 35.7933 148.691 35.0933 149.344 34.6C150.011 34.0933 150.991 33.84 152.284 33.84C153.164 33.84 153.877 33.98 154.424 34.26C154.984 34.5267 155.404 34.8733 155.684 35.3C155.977 35.7267 156.151 36.1867 156.204 36.68H154.684C154.631 36.2533 154.417 35.8867 154.044 35.58C153.684 35.2733 153.084 35.12 152.244 35.12C150.657 35.12 149.864 35.6 149.864 36.56C149.864 36.96 150.024 37.2667 150.344 37.48C150.664 37.6933 151.077 37.8667 151.584 38C152.091 38.12 152.624 38.24 153.184 38.36C153.757 38.4667 154.297 38.62 154.804 38.82C155.311 39.02 155.724 39.3067 156.044 39.68C156.364 40.04 156.524 40.5333 156.524 41.16C156.524 42.1333 156.151 42.88 155.404 43.4C154.671 43.9067 153.684 44.16 152.444 44.16ZM159.532 44V35.32H157.492V34H159.532V30.42H161.032V34H163.332V35.32H161.032V44H159.532ZM169.12 44.16C168.107 44.16 167.227 43.9333 166.48 43.48C165.734 43.0133 165.16 42.3867 164.76 41.6C164.36 40.8133 164.16 39.9467 164.16 39C164.16 38.04 164.36 37.1733 164.76 36.4C165.16 35.6133 165.734 34.9933 166.48 34.54C167.227 34.0733 168.107 33.84 169.12 33.84C170.147 33.84 171.027 34.0733 171.76 34.54C172.507 34.9933 173.08 35.6133 173.48 36.4C173.88 37.1733 174.08 38.04 174.08 39C174.08 39.9467 173.88 40.8133 173.48 41.6C173.08 42.3867 172.507 43.0133 171.76 43.48C171.027 43.9333 170.147 44.16 169.12 44.16ZM169.12 42.8C169.867 42.8 170.494 42.6267 171 42.28C171.52 41.9333 171.914 41.4733 172.18 40.9C172.447 40.3133 172.58 39.68 172.58 39C172.58 38.3067 172.447 37.6733 172.18 37.1C171.914 36.5267 171.52 36.0667 171 35.72C170.494 35.3733 169.867 35.2 169.12 35.2C168.387 35.2 167.76 35.3733 167.24 35.72C166.72 36.0667 166.327 36.5267 166.06 37.1C165.794 37.6733 165.66 38.3067 165.66 39C165.66 39.68 165.794 40.3133 166.06 40.9C166.327 41.4733 166.72 41.9333 167.24 42.28C167.76 42.6267 168.387 42.8 169.12 42.8ZM176.07 44V34H177.57V35.52C177.796 35.12 178.156 34.74 178.65 34.38C179.143 34.02 179.796 33.84 180.61 33.84C181.276 33.84 181.89 34.02 182.45 34.38C183.023 34.7267 183.47 35.22 183.79 35.86C183.923 35.6333 184.13 35.36 184.41 35.04C184.703 34.72 185.083 34.44 185.55 34.2C186.016 33.96 186.576 33.84 187.23 33.84C187.87 33.84 188.47 34.0067 189.03 34.34C189.59 34.6733 190.043 35.1533 190.39 35.78C190.75 36.3933 190.93 37.12 190.93 37.96V44H189.43V38C189.43 37.16 189.19 36.4867 188.71 35.98C188.243 35.46 187.656 35.2 186.95 35.2C186.216 35.2 185.583 35.4467 185.05 35.94C184.516 36.4333 184.25 37.1267 184.25 38.02V44H182.75V38C182.75 37.16 182.51 36.4867 182.03 35.98C181.563 35.46 180.976 35.2 180.27 35.2C179.536 35.2 178.903 35.4467 178.37 35.94C177.836 36.4333 177.57 37.1267 177.57 38.02V44H176.07ZM193.373 32.32V30.36H194.993V32.32H193.373ZM193.433 44V34H194.933V44H193.433ZM196.854 44V42.58L202.834 35.38H196.934V34H204.734V35.4L198.734 42.6H204.734V44H196.854ZM211.135 44.16C210.121 44.16 209.235 43.9333 208.475 43.48C207.715 43.0133 207.121 42.3867 206.695 41.6C206.281 40.8133 206.075 39.9467 206.075 39C206.075 38.04 206.275 37.1733 206.675 36.4C207.075 35.6133 207.648 34.9933 208.395 34.54C209.141 34.0733 210.021 33.84 211.035 33.84C212.061 33.84 212.941 34.0733 213.675 34.54C214.421 34.9933 214.995 35.6133 215.395 36.4C215.795 37.1733 215.995 38.04 215.995 39V39.6H207.615C207.695 40.1867 207.881 40.7267 208.175 41.22C208.481 41.7 208.888 42.0867 209.395 42.38C209.901 42.66 210.488 42.8 211.155 42.8C211.861 42.8 212.455 42.6467 212.935 42.34C213.415 42.02 213.788 41.6133 214.055 41.12H215.695C215.348 42.0133 214.795 42.7467 214.035 43.32C213.288 43.88 212.321 44.16 211.135 44.16ZM207.635 38.2H214.435C214.301 37.3467 213.941 36.6333 213.355 36.06C212.768 35.4867 211.995 35.2 211.035 35.2C210.075 35.2 209.301 35.4867 208.715 36.06C208.141 36.6333 207.781 37.3467 207.635 38.2ZM222.047 44.16C221.074 44.16 220.221 43.9333 219.487 43.48C218.767 43.0133 218.207 42.3867 217.807 41.6C217.407 40.8133 217.207 39.9467 217.207 39C217.207 38.04 217.407 37.1733 217.807 36.4C218.207 35.6133 218.767 34.9933 219.487 34.54C220.221 34.0733 221.074 33.84 222.047 33.84C222.874 33.84 223.581 34 224.167 34.32C224.767 34.64 225.254 35.0733 225.627 35.62V30H227.127V44H225.627V42.4C225.254 42.9333 224.767 43.36 224.167 43.68C223.581 44 222.874 44.16 222.047 44.16ZM222.247 42.8C222.994 42.8 223.621 42.6267 224.127 42.28C224.647 41.9333 225.041 41.4733 225.307 40.9C225.574 40.3133 225.707 39.68 225.707 39C225.707 38.3067 225.574 37.6733 225.307 37.1C225.041 36.5267 224.647 36.0667 224.127 35.72C223.621 35.3733 222.994 35.2 222.247 35.2C221.514 35.2 220.881 35.3733 220.347 35.72C219.814 36.0667 219.407 36.5267 219.127 37.1C218.847 37.6733 218.707 38.3067 218.707 39C218.707 39.68 218.847 40.3133 219.127 40.9C219.407 41.4733 219.814 41.9333 220.347 42.28C220.881 42.6267 221.514 42.8 222.247 42.8ZM244.6 47.14C243.946 47.14 243.313 47.0133 242.7 46.76C242.086 46.5067 241.54 46.1533 241.06 45.7C240.58 45.2467 240.193 44.7267 239.9 44.14C238.62 44.1 237.493 43.7733 236.52 43.16C235.56 42.5467 234.806 41.74 234.26 40.74C233.726 39.7267 233.46 38.6067 233.46 37.38C233.46 36.4333 233.62 35.5533 233.94 34.74C234.26 33.9267 234.713 33.2067 235.3 32.58C235.9 31.9533 236.613 31.4667 237.44 31.12C238.266 30.7733 239.18 30.6 240.18 30.6C241.18 30.6 242.093 30.7733 242.92 31.12C243.746 31.4667 244.453 31.9533 245.04 32.58C245.64 33.2067 246.1 33.9267 246.42 34.74C246.74 35.5533 246.9 36.4333 246.9 37.38C246.9 38.5 246.666 39.5333 246.2 40.48C245.746 41.4133 245.106 42.1933 244.28 42.82C243.466 43.4467 242.513 43.8533 241.42 44.04C241.553 44.28 241.753 44.54 242.02 44.82C242.286 45.1133 242.633 45.36 243.06 45.56C243.486 45.76 244.006 45.86 244.62 45.86C245.1 45.86 245.533 45.78 245.92 45.62C246.32 45.46 246.693 45.24 247.04 44.96L247.84 46.04C247.373 46.4133 246.873 46.6867 246.34 46.86C245.82 47.0467 245.24 47.14 244.6 47.14ZM240.18 42.7C241.26 42.7 242.186 42.4667 242.96 42C243.746 41.52 244.346 40.88 244.76 40.08C245.186 39.2667 245.4 38.3667 245.4 37.38C245.4 36.38 245.186 35.48 244.76 34.68C244.346 33.88 243.746 33.2467 242.96 32.78C242.186 32.3 241.26 32.06 240.18 32.06C239.113 32.06 238.186 32.3 237.4 32.78C236.613 33.2467 236.006 33.88 235.58 34.68C235.166 35.48 234.96 36.38 234.96 37.38C234.96 38.3667 235.166 39.2667 235.58 40.08C236.006 40.88 236.613 41.52 237.4 42C238.186 42.4667 239.113 42.7 240.18 42.7ZM252.88 44.16C252.2 44.16 251.553 44 250.94 43.68C250.326 43.3467 249.826 42.86 249.44 42.22C249.066 41.5667 248.88 40.7667 248.88 39.82V34H250.38V39.78C250.38 40.6867 250.64 41.42 251.16 41.98C251.693 42.5267 252.366 42.8 253.18 42.8C253.74 42.8 254.246 42.6733 254.7 42.42C255.153 42.1533 255.513 41.7933 255.78 41.34C256.06 40.8867 256.2 40.36 256.2 39.76V34H257.7V44H256.2V42.44C255.84 42.92 255.4 43.3267 254.88 43.66C254.36 43.9933 253.693 44.16 252.88 44.16ZM264.648 44.16C263.634 44.16 262.754 43.9333 262.008 43.48C261.261 43.0133 260.688 42.3867 260.288 41.6C259.888 40.8133 259.688 39.9467 259.688 39C259.688 38.04 259.888 37.1733 260.288 36.4C260.688 35.6133 261.261 34.9933 262.008 34.54C262.754 34.0733 263.634 33.84 264.648 33.84C265.674 33.84 266.554 34.0733 267.288 34.54C268.034 34.9933 268.608 35.6133 269.008 36.4C269.408 37.1733 269.608 38.04 269.608 39C269.608 39.9467 269.408 40.8133 269.008 41.6C268.608 42.3867 268.034 43.0133 267.288 43.48C266.554 43.9333 265.674 44.16 264.648 44.16ZM264.648 42.8C265.394 42.8 266.021 42.6267 266.528 42.28C267.048 41.9333 267.441 41.4733 267.708 40.9C267.974 40.3133 268.108 39.68 268.108 39C268.108 38.3067 267.974 37.6733 267.708 37.1C267.441 36.5267 267.048 36.0667 266.528 35.72C266.021 35.3733 265.394 35.2 264.648 35.2C263.914 35.2 263.288 35.3733 262.768 35.72C262.248 36.0667 261.854 36.5267 261.588 37.1C261.321 37.6733 261.188 38.3067 261.188 39C261.188 39.68 261.321 40.3133 261.588 40.9C261.854 41.4733 262.248 41.9333 262.768 42.28C263.288 42.6267 263.914 42.8 264.648 42.8ZM272.677 44V35.32H270.637V34H272.677V30.42H274.177V34H276.477V35.32H274.177V44H272.677ZM282.365 44.16C281.352 44.16 280.465 43.9333 279.705 43.48C278.945 43.0133 278.352 42.3867 277.925 41.6C277.512 40.8133 277.305 39.9467 277.305 39C277.305 38.04 277.505 37.1733 277.905 36.4C278.305 35.6133 278.878 34.9933 279.625 34.54C280.372 34.0733 281.252 33.84 282.265 33.84C283.292 33.84 284.172 34.0733 284.905 34.54C285.652 34.9933 286.225 35.6133 286.625 36.4C287.025 37.1733 287.225 38.04 287.225 39V39.6H278.845C278.925 40.1867 279.112 40.7267 279.405 41.22C279.712 41.7 280.118 42.0867 280.625 42.38C281.132 42.66 281.718 42.8 282.385 42.8C283.092 42.8 283.685 42.6467 284.165 42.34C284.645 42.02 285.018 41.6133 285.285 41.12H286.925C286.578 42.0133 286.025 42.7467 285.265 43.32C284.518 43.88 283.552 44.16 282.365 44.16ZM278.865 38.2H285.665C285.532 37.3467 285.172 36.6333 284.585 36.06C283.998 35.4867 283.225 35.2 282.265 35.2C281.305 35.2 280.532 35.4867 279.945 36.06C279.372 36.6333 279.012 37.3467 278.865 38.2Z" fill="white"/>
</svg>
